<svg id="SvgjsSvg1015" width="288" height="288" xmlns="http://www.w3.org/2000/svg" version="1.1" xmlns:xlink="http://www.w3.org/1999/xlink" xmlns:svgjs="http://svgjs.com/svgjs"><defs id="SvgjsDefs1016"></defs><g id="SvgjsG1017"><svg xmlns="http://www.w3.org/2000/svg" data-name="Layer 1" viewBox="0 0 64 64" width="288" height="288"><rect width="14" height="14" x="2" y="22" fill="#323232" rx="2" class="colore3fcfd svgShape"></rect><rect width="14" height="14" x="25" y="22" fill="#323232" rx="2" class="colore3fcfd svgShape"></rect><rect width="14" height="14" x="48" y="22" fill="#212121" rx="2" class="color42eaf5 svgShape"></rect><path fill="#6441a5" d="M14 20H4a4 4 0 0 0-4 4v10a4 4 0 0 0 4 4h10a4 4 0 0 0 4-4V24a4 4 0 0 0-4-4zM4 34V24h10v10zm37 0V24a4 4 0 0 0-4-4H27a4 4 0 0 0-4 4v10a4 4 0 0 0 4 4h10a4 4 0 0 0 4-4zM27 24h10v10H27zm33-4H50a4 4 0 0 0-4 4v10a4 4 0 0 0 4 4h10a4 4 0 0 0 4-4V24a4 4 0 0 0-4-4zM50 34V24h10v10zM30.33 10.43a2.1 2.1 0 0 0-3.12.68 2 2 0 0 0 .9 2.68l4 2a2 2 0 0 0 2.49-.59l3-4a2 2 0 0 0-.4-2.8 2.09 2.09 0 0 0-3.08.77A14 14 0 0 0 7 14a2 2 0 0 0 4 0 10 10 0 0 1 19.33-3.57zM57.6 42.8a2 2 0 0 0-2.49-.59l-4 2a2 2 0 0 0-.9 2.68 2.1 2.1 0 0 0 3.12.68A10 10 0 0 1 34 44a2 2 0 0 0-4 0 14 14 0 0 0 27.12 4.83 2.09 2.09 0 0 0 3.08.77 2 2 0 0 0 .4-2.8zm-5.01-27.39a2 2 0 0 0 2.61.19l8-6a2 2 0 1 0-2.4-3.2l-6.61 5-1.78-1.81a2 2 0 0 0-2.82 2.82zM14.2 45.4l-4-3a2 2 0 0 0-2.4 0l-4 3a2 2 0 0 0-.4 2.8C4.37 49.52 6 49 7 48v6a2 2 0 0 0 4 0v-6c1 1 2.63 1.52 3.6.2a2 2 0 0 0-.4-2.8z" class="color007da1 svgShape"></path><circle cx="9" cy="62" r="2" fill="#212121" class="color42eaf5 svgShape"></circle></svg></g></svg>